<svg xmlns="http://www.w3.org/2000/svg" viewBox="0 0 350 350" enable-background="new 0 0 350 350"><g fill="#00a69c"><path d="m350 160h-169.67-.33v-160h-9.67v160h-.33-170v10h170v180h10.33v-180h169.67z"/><path d="m149.67 0v140h-149.67v10.67h160v-.67-10-140z"/><path d="m129.67 0v120h-129.67v10h129.67 10.33v-10-120z"/><path d="m110.33 0v100h-110.33v10h110.33 9.67v-10-100z"/><path d="m89.67 0v80h-89.67v10h89.67 10.33v-10-80z"/><path d="m69.67 0v60h-69.67v10h69.67 10.33v-10-60z"/><path d="m50 0v40h-50v10h50 10v-10-40z"/><path d="m30.333 0v20h-30.333v10h30.333 9.667v-10-20z"/><path d="m200.33 0v140h149.67v10.67h-160v-.67-10-140z"/><path d="m220.33 0v120h129.67v10h-129.67-10.33v-10-120z"/><path d="m239.67 0v100h110.33v10h-110.33-9.67v-10-100z"/><path d="m260.33 0v80h89.67v10h-89.67-10.33v-10-80z"/><path d="m280.33 0v60h69.67v10h-69.67-10.33v-10-60z"/><path d="m300 0v40h50v10h-50-10v-10-40z"/><path d="m319.67 0v20h30.33v10h-30.33-9.67v-10-20z"/><path d="m149.67 350v-160h-149.67v-10.67h160v.67 10 160z"/><path d="m129.67 350v-140h-129.67v-10h129.67 10.33v10 140z"/><path d="m110.33 350v-120h-110.33v-10h110.33 9.67v10 120z"/><path d="m89.67 350v-100h-89.67v-10h89.67 10.33v10 100z"/><path d="m69.67 350v-80h-69.67v-10h69.67 10.33v10 80z"/><path d="m50 350v-60h-50v-10h50 10v10 60z"/><path d="m30.333 350v-40h-30.333v-10h30.333 9.667v10 40z"/><path d="m200.33 350v-160h149.67v-10.67h-160v.67 10 160z"/><path d="m220.33 350v-140h129.67v-10h-129.67-10.33v10 140z"/><path d="m239.67 350v-120h110.33v-10h-110.33-9.67v10 120z"/><path d="m260.33 350v-100h89.67v-10h-89.67-10.33v10 100z"/><path d="m280.33 350v-80h69.67v-10h-69.67-10.33v10 80z"/><path d="m300 350v-60h50v-10h-50-10v10 60z"/><path d="m319.67 350v-40h30.33v-10h-30.33-9.67v10 40z"/></g></svg>